<?xml version="1.0" encoding="utf-8"?>
<!-- Generator: Adobe Illustrator 18.0.0, SVG Export Plug-In . SVG Version: 6.00 Build 0)  -->
<!DOCTYPE svg PUBLIC "-//W3C//DTD SVG 1.1//EN" "http://www.w3.org/Graphics/SVG/1.1/DTD/svg11.dtd">
<svg version="1.1" id="Layer_1" xmlns="http://www.w3.org/2000/svg" xmlns:xlink="http://www.w3.org/1999/xlink" x="0px" y="0px"
	 viewBox="0 0 640 362.1" enable-background="new 0 0 640 362.1" xml:space="preserve">
<path fill="none" stroke="#000000" stroke-width="4" stroke-miterlimit="10" d="M600,204.6l-61.5,89.3
	c-9.1,13.2-24.1,21.1-40.1,21.1H141.6c-16,0-31-7.9-40.1-21.1L40,204.6C28.6,188,28.6,166,40,149.4l61.5-89.3
	c9.1-13.2,24.1-21.1,40.1-21.1h356.9c16,0,31,7.9,40.1,21.1l61.5,89.3C611.4,166,611.4,188,600,204.6z"/>
<g>
	<path d="M171.5,108.5c0.4-1.2,1.2-1.8,2.5-1.8c1.3,0,2.1,0.6,2.6,1.8l14.9,42c0,0.1,0.1,0.3,0.1,0.5c0,0.9-0.4,1.3-1.3,1.3h-0.8
		c-0.6,0-1-0.3-1.2-0.8l-14.2-40.4l-14.2,40.4c-0.3,0.6-0.7,0.8-1.2,0.8h-0.8c-0.9,0-1.3-0.4-1.3-1.3c0-0.2,0-0.3,0.1-0.5
		L171.5,108.5z M168.4,132.3h11.2c0.3,0,0.6,0.1,0.9,0.4c0.3,0.2,0.4,0.6,0.4,0.9v0.6c0,0.4-0.1,0.7-0.4,0.9
		c-0.3,0.2-0.6,0.4-0.9,0.4h-11.2c-0.8,0-1.2-0.4-1.2-1.3v-0.6C167.2,132.7,167.6,132.3,168.4,132.3z"/>
	<path d="M201.4,122.5c2.1-1.9,4.8-2.8,8.1-2.8c3.3,0,6,0.9,8.1,2.8c2,1.9,3.1,4.5,3.1,7.9c0,0.8-0.4,1.2-1.3,1.2h-0.5
		c-0.8,0-1.2-0.4-1.2-1.2c0-2.5-0.8-4.4-2.3-5.7c-1.5-1.3-3.4-1.9-5.8-1.9c-2.3,0-4.3,0.7-5.8,2c-1.5,1.3-2.3,3.2-2.3,5.7v11.2
		c0,2.5,0.8,4.4,2.3,5.7c1.5,1.3,3.5,2,5.8,2c2.3,0,4.3-0.6,5.8-1.9c1.5-1.3,2.3-3.1,2.3-5.5c0-0.3,0.1-0.6,0.4-0.9
		c0.2-0.3,0.5-0.4,0.9-0.4h0.5c0.4,0,0.7,0.1,0.9,0.4c0.2,0.3,0.4,0.6,0.4,0.9c-0.1,3.3-1.1,5.9-3.2,7.7c-2,1.9-4.7,2.8-8,2.8
		c-3.3,0-6-0.9-8.1-2.8c-2.1-1.9-3.2-4.5-3.2-7.9v-11.3C198.3,127,199.3,124.3,201.4,122.5z"/>
	<path d="M228.9,119.8h1.6c0.4,0,0.7,0.1,0.9,0.4c0.2,0.3,0.4,0.6,0.4,0.9v0.4c0,0.3-0.1,0.6-0.4,0.9c-0.2,0.3-0.6,0.4-0.9,0.4h-1.6
		c-0.4,0-0.7-0.1-0.9-0.4c-0.2-0.3-0.4-0.6-0.4-0.9v-0.4c0-0.3,0.1-0.6,0.4-0.9C228.2,119.9,228.5,119.8,228.9,119.8z M233.9,104.9
		h0.5c0.8,0,1.2,0.4,1.2,1.2l-0.2,36.2c0,2.2,0.7,3.9,1.9,5.1c1.2,1.2,2.8,1.8,4.7,1.8h1.6c0.3,0,0.6,0.1,0.9,0.4
		c0.2,0.3,0.4,0.5,0.4,0.8v0.5c0,0.9-1,1.3-2.9,1.3c-2.9,0-5.2-0.9-6.9-2.6c-1.7-1.8-2.6-4.2-2.7-7.3l0.2-36.3
		C232.7,105.3,233.1,104.9,233.9,104.9z M237.6,119.8h4.8c0.3,0,0.6,0.1,0.9,0.4c0.2,0.3,0.4,0.6,0.4,0.9v0.4c0,0.3-0.1,0.6-0.4,0.9
		c-0.2,0.3-0.5,0.4-0.9,0.4h-4.8c-0.3,0-0.6-0.1-0.9-0.4c-0.3-0.3-0.4-0.6-0.4-0.9v-0.4c0-0.3,0.1-0.6,0.4-0.9
		C236.9,119.9,237.2,119.8,237.6,119.8z"/>
	<path d="M251.7,105.3c0.4-0.4,1.4-0.6,3-0.6s2.6,0.2,3.1,0.6c0.5,0.4,0.7,1.3,0.7,2.6v0.8c0,1.5-0.2,2.4-0.7,2.8
		c-0.5,0.4-1.5,0.6-3.1,0.6s-2.6-0.2-3-0.6c-0.4-0.4-0.6-1.3-0.6-2.8v-0.8C251.1,106.5,251.3,105.7,251.7,105.3z M254.3,119.7h1.1
		c0.5,0,0.9,0.1,1,0.3c0.2,0.2,0.3,0.5,0.3,1v30c0,0.4-0.1,0.7-0.4,0.9c-0.3,0.2-0.6,0.4-0.9,0.4h-1.1c-0.3,0-0.6-0.1-0.9-0.4
		c-0.3-0.2-0.4-0.6-0.4-0.9v-30c0-0.6,0.1-0.9,0.4-1.1C253.6,119.8,253.9,119.7,254.3,119.7z M255.9,107.2c-0.2-0.2-0.6-0.2-1.2-0.2
		c-0.6,0-1,0.1-1.1,0.2c-0.2,0.1-0.3,0.4-0.3,0.9v0.6c0,0.5,0.1,0.8,0.3,0.9c0.2,0.1,0.6,0.2,1.2,0.2c0.6,0,1-0.1,1.2-0.2
		c0.2-0.1,0.3-0.4,0.3-0.9v-0.6C256.2,107.7,256.1,107.4,255.9,107.2z"/>
	<path d="M269.3,122.5c2.1-1.9,4.8-2.8,8.1-2.8c3.3,0,6,0.9,8.1,2.8c2,1.9,3.1,4.5,3.1,7.9v11.3c0,3.4-1,6-3.1,7.9
		c-2,1.9-4.7,2.8-8,2.8c-3.3,0-6-0.9-8.1-2.8c-2.1-1.9-3.2-4.5-3.2-7.9v-11.3C266.2,127,267.2,124.3,269.3,122.5z M283.2,124.7
		c-1.5-1.3-3.4-2-5.8-2c-2.3,0-4.3,0.7-5.8,2c-1.6,1.3-2.3,3.2-2.3,5.7v11.3c0,2.5,0.8,4.4,2.3,5.7c1.6,1.3,3.5,2,5.8,2
		c2.3,0,4.3-0.7,5.8-2c1.5-1.3,2.3-3.2,2.3-5.7v-11.3C285.5,127.9,284.7,126,283.2,124.7z"/>
	<path d="M299.5,119.9h0.5c0.3,0,0.6,0.1,0.9,0.4c0.3,0.2,0.4,0.6,0.4,0.9V151c0,0.4-0.1,0.7-0.4,0.9c-0.3,0.2-0.6,0.4-0.9,0.4h-0.5
		c-0.3,0-0.6-0.1-0.9-0.4c-0.3-0.2-0.4-0.6-0.4-0.9v-29.8c0-0.4,0.1-0.7,0.4-0.9C298.9,120,299.2,119.9,299.5,119.9z M310.5,119.7
		c3.2,0,5.7,0.9,7.5,2.6c1.7,1.7,2.6,4.2,2.6,7.5V151c0,0.9-0.4,1.3-1.2,1.3h-0.5c-0.9,0-1.3-0.4-1.3-1.3v-20.5
		c0-5.2-2.4-7.7-7.1-7.7c-2.5,0-4.6,1-6.3,2.9c-0.5,0.4-0.9,0.6-1.2,0.6c-0.8,0-1.2-0.4-1.2-1.3c0-0.3,0.1-0.7,0.3-1
		c0.9-1.3,2.1-2.3,3.6-3.1C307.1,120.1,308.7,119.7,310.5,119.7z"/>
	<path d="M390.7,106.8h0.8c0.9,0,1.3,0.4,1.3,1.3c0,0.2,0,0.3-0.1,0.5l-14.8,42c-0.4,1.2-1.2,1.8-2.5,1.8c-1.3,0-2.2-0.6-2.6-1.8
		l-14.9-42c0-0.1-0.1-0.3-0.1-0.5c0-0.9,0.4-1.3,1.3-1.3h0.8c0.5,0,0.9,0.3,1.2,0.8l14.2,40.5l14.2-40.5
		C389.7,107.1,390.1,106.8,390.7,106.8z"/>
	<path d="M401.5,122.5c2.1-1.9,4.8-2.8,8.1-2.8s6,0.9,8.1,2.8c2,1.9,3.1,4.5,3.1,7.9v3.9c0,1.9-0.9,2.8-2.7,2.8h-14
		c-0.4,0-0.7-0.1-0.9-0.4c-0.2-0.3-0.4-0.6-0.4-0.9v-0.5c0-0.3,0.1-0.6,0.4-0.9c0.2-0.3,0.6-0.4,0.9-0.4h13.6v-3.5
		c0-2.5-0.8-4.4-2.3-5.7c-1.5-1.3-3.4-2-5.8-2c-2.3,0-4.3,0.7-5.8,2c-1.5,1.3-2.3,3.2-2.3,5.7v11.2c0,2.5,0.8,4.4,2.3,5.7
		c1.5,1.3,3.5,2,5.8,2s4.2-0.6,5.8-1.9c1.5-1.3,2.3-3.1,2.3-5.5c0-0.3,0.1-0.6,0.4-0.9c0.2-0.3,0.5-0.4,0.9-0.4h0.5
		c0.4,0,0.7,0.1,0.9,0.4c0.2,0.3,0.4,0.6,0.4,0.9c0,3.3-1.1,5.9-3.1,7.8c-2,1.8-4.7,2.8-8,2.8s-6-0.9-8.1-2.8
		c-2.1-1.9-3.2-4.5-3.2-7.9v-11.3C398.3,127,399.4,124.3,401.5,122.5z"/>
	<path d="M441.2,119.7c0.8,0,1.2,0.4,1.2,1.3v0.5c0,0.3-0.1,0.6-0.4,0.9c-0.2,0.3-0.5,0.4-0.9,0.4c-2.5,0-4.4,0.6-5.9,1.9
		c-1.5,1.3-2.2,3.2-2.2,5.8V151c0,0.4-0.1,0.7-0.4,0.9c-0.3,0.2-0.6,0.4-0.9,0.4h-0.5c-0.3,0-0.6-0.1-0.9-0.4
		c-0.3-0.2-0.4-0.6-0.4-0.9v-20.6c0-3.6,1-6.2,3-8C435,120.6,437.8,119.7,441.2,119.7z"/>
	<path d="M449,104.9h0.5c0.3,0,0.7,0.1,0.9,0.4c0.3,0.2,0.4,0.5,0.4,0.9v16.8c2.3-2.2,5.1-3.2,8.4-3.2s6,0.9,8,2.8
		c1.9,1.9,2.9,4.5,2.9,7.9v11.3c0,3.4-1,6.1-3.1,7.9c-2.1,1.9-4.8,2.8-8.1,2.8c-3.3,0-6-0.9-8.1-2.8c-2.1-1.9-3.1-4.5-3.1-7.9v-35.6
		c0-0.3,0.1-0.6,0.4-0.9C448.4,105,448.7,104.9,449,104.9z M459.4,122.8c-3.7,0-6.6,1.3-8.6,4v14.9c0,2.5,0.8,4.4,2.3,5.7
		c1.5,1.3,3.4,2,5.8,2c2.3,0,4.3-0.6,5.8-1.9c1.5-1.3,2.3-3.2,2.3-5.7v-11.1c0-2.5-0.7-4.4-2.1-5.8
		C463.5,123.5,461.7,122.8,459.4,122.8z"/>
	<path d="M128.9,186.1c1.5-0.7,2.9-1.2,4.1-1.4c1.2-0.2,2.4-0.3,3.5-0.3c1.1,0,2.3,0.1,3.5,0.3c1.2,0.2,2.5,0.6,3.9,1.2
		c1.4,0.6,2.7,1.4,3.8,2.4c1.1,1,2.1,2.3,3,4c0.9,1.7,1.4,3.7,1.6,5.9c0,1-0.4,1.4-1.3,1.4h-0.6c-0.8,0-1.2-0.4-1.3-1.2
		c-0.2-1.8-0.7-3.4-1.4-4.8c-0.7-1.4-1.5-2.4-2.4-3.2c-0.9-0.7-1.9-1.3-3.1-1.8c-1.7-0.7-3.3-1.1-4.8-1.1s-2.7,0.1-3.7,0.3
		c-1,0.2-2.1,0.5-3.3,1.1c-1.2,0.6-2.3,1.3-3.2,2.2c-0.9,0.9-1.7,2.2-2.3,3.9c-0.6,1.7-0.9,3.6-0.9,5.8v12.7c0,2.2,0.3,4.2,1,5.8
		c0.6,1.7,1.4,3,2.3,3.9c0.9,0.9,2,1.7,3.2,2.2c1.2,0.6,2.3,0.9,3.3,1.1c1,0.2,1.9,0.3,2.9,0.3c1,0,1.9-0.1,2.9-0.2
		c1-0.2,2-0.5,3.2-1c1.2-0.5,2.3-1.3,3.2-2.1c0.9-0.9,1.7-2.1,2.3-3.7c0.6-1.6,0.9-3.5,0.9-5.6v-3.8h-10.7c-0.9,0-1.3-0.4-1.3-1.3
		v-0.6c0-0.3,0.1-0.6,0.4-0.9c0.2-0.3,0.6-0.4,0.9-0.4h11.3c1.7,0,2.6,0.9,2.6,2.8v4.2c0,2.6-0.4,5-1.2,7c-0.8,2-1.8,3.6-2.9,4.6
		c-1.1,1.1-2.4,1.9-4,2.6c-2.5,1.1-5,1.6-7.7,1.6c-2.8,0-5.1-0.5-7.1-1.4c-2-1-3.5-2-4.7-3.1c-1.1-1.1-2.1-2.7-2.9-4.8
		c-0.8-2.1-1.2-4.4-1.2-7v-13.2c0-2.7,0.4-5.1,1.2-7.2c0.8-2.1,1.8-3.7,2.9-4.8C126,187.7,127.4,186.8,128.9,186.1z"/>
	<path d="M163.6,200.5c2.1-1.9,4.8-2.8,8.1-2.8c3.3,0,6,0.9,8.1,2.8c2,1.9,3.1,4.5,3.1,7.9v3.9c0,1.9-0.9,2.8-2.7,2.8h-14
		c-0.4,0-0.7-0.1-0.9-0.4c-0.2-0.3-0.4-0.6-0.4-0.9v-0.5c0-0.3,0.1-0.6,0.4-0.9c0.2-0.3,0.6-0.4,0.9-0.4h13.6v-3.5
		c0-2.5-0.8-4.4-2.3-5.7c-1.5-1.3-3.4-2-5.8-2c-2.3,0-4.3,0.7-5.8,2c-1.5,1.3-2.3,3.2-2.3,5.7v11.2c0,2.5,0.8,4.4,2.3,5.7
		c1.5,1.3,3.5,2,5.8,2c2.3,0,4.2-0.6,5.8-1.9c1.5-1.3,2.3-3.1,2.3-5.5c0-0.3,0.1-0.6,0.4-0.9c0.2-0.3,0.5-0.4,0.9-0.4h0.5
		c0.4,0,0.7,0.1,0.9,0.4c0.2,0.3,0.4,0.6,0.4,0.9c0,3.3-1.1,5.9-3.1,7.8c-2,1.8-4.7,2.8-8,2.8c-3.3,0-6-0.9-8.1-2.8
		c-2.1-1.9-3.2-4.5-3.2-7.9v-11.3C160.5,205,161.5,202.3,163.6,200.5z"/>
	<path d="M192.9,197.9h0.5c0.3,0,0.6,0.1,0.9,0.4c0.3,0.2,0.4,0.6,0.4,0.9V229c0,0.4-0.1,0.7-0.4,0.9c-0.3,0.2-0.6,0.4-0.9,0.4h-0.5
		c-0.3,0-0.6-0.1-0.9-0.4c-0.3-0.2-0.4-0.6-0.4-0.9v-29.8c0-0.4,0.1-0.7,0.4-0.9C192.2,198,192.5,197.9,192.9,197.9z M203.9,197.7
		c3.2,0,5.7,0.9,7.5,2.6c1.7,1.7,2.6,4.2,2.6,7.5V229c0,0.9-0.4,1.3-1.2,1.3h-0.5c-0.9,0-1.3-0.4-1.3-1.3v-20.5
		c0-5.2-2.4-7.7-7.1-7.7c-2.5,0-4.6,1-6.3,2.9c-0.5,0.4-0.9,0.6-1.2,0.6c-0.8,0-1.2-0.4-1.2-1.3c0-0.3,0.1-0.7,0.3-1
		c0.9-1.3,2.1-2.3,3.6-3.1C200.4,198,202.1,197.7,203.9,197.7z"/>
	<path d="M226.5,200.5c2.1-1.9,4.8-2.8,8.1-2.8c3.3,0,6,0.9,8.1,2.8c2,1.9,3.1,4.5,3.1,7.9v3.9c0,1.9-0.9,2.8-2.7,2.8h-14
		c-0.4,0-0.7-0.1-0.9-0.4c-0.2-0.3-0.4-0.6-0.4-0.9v-0.5c0-0.3,0.1-0.6,0.4-0.9c0.2-0.3,0.6-0.4,0.9-0.4h13.6v-3.5
		c0-2.5-0.8-4.4-2.3-5.7c-1.5-1.3-3.4-2-5.8-2c-2.3,0-4.3,0.7-5.8,2c-1.5,1.3-2.3,3.2-2.3,5.7v11.2c0,2.5,0.8,4.4,2.3,5.7
		c1.5,1.3,3.5,2,5.8,2c2.3,0,4.2-0.6,5.8-1.9c1.5-1.3,2.3-3.1,2.3-5.5c0-0.3,0.1-0.6,0.4-0.9c0.2-0.3,0.5-0.4,0.9-0.4h0.5
		c0.4,0,0.7,0.1,0.9,0.4c0.2,0.3,0.4,0.6,0.4,0.9c0,3.3-1.1,5.9-3.1,7.8c-2,1.8-4.7,2.8-8,2.8c-3.3,0-6-0.9-8.1-2.8
		c-2.1-1.9-3.2-4.5-3.2-7.9v-11.3C223.4,205,224.5,202.3,226.5,200.5z"/>
	<path d="M266.3,197.7c0.8,0,1.2,0.4,1.2,1.3v0.5c0,0.3-0.1,0.6-0.4,0.9c-0.2,0.3-0.5,0.4-0.9,0.4c-2.5,0-4.4,0.6-5.9,1.9
		c-1.5,1.3-2.2,3.2-2.2,5.8V229c0,0.4-0.1,0.7-0.4,0.9c-0.3,0.2-0.6,0.4-0.9,0.4h-0.5c-0.3,0-0.6-0.1-0.9-0.4
		c-0.3-0.2-0.4-0.6-0.4-0.9v-20.6c0-3.6,1-6.2,3-8C260.1,198.6,262.8,197.7,266.3,197.7z"/>
	<path d="M277.5,200.5c2.1-1.9,4.8-2.8,8.1-2.8c3.3,0,6,0.9,8.1,2.8c2,1.9,3.1,4.5,3.1,7.9v14.3c0,1.7,0.1,2.8,0.4,3.5
		c0.3,0.6,0.8,1.1,1.7,1.3l0.7,0.2c0.6,0.1,1,0.4,1,0.8v0.7c0,0.7-0.4,1.1-1.3,1.1c-2.1,0-3.6-0.6-4.4-1.9c-0.8-1.3-1.2-3.2-1.2-5.8
		v-14.2c0-2.5-0.8-4.4-2.3-5.7c-1.5-1.3-3.4-2-5.8-2s-4.3,0.7-5.8,2c-1.6,1.3-2.3,3.2-2.3,5.7v11.1c0,2.6,0.6,4.5,1.9,5.8
		c1.3,1.3,3.1,1.9,5.5,1.9c2.4,0,4.4-1,5.9-2.9c0.3-0.4,0.7-0.6,1.3-0.6c0.5,0,0.9,0.3,1.1,1c0.1,0.5,0.1,1-0.2,1.4
		c-1.9,2.8-4.5,4.2-8,4.2c-3.5,0-6.1-0.9-7.9-2.8c-1.8-1.9-2.7-4.5-2.7-7.9v-11.2C274.4,205,275.4,202.3,277.5,200.5z"/>
	<path d="M304.7,197.8h1.6c0.4,0,0.7,0.1,0.9,0.4c0.2,0.3,0.4,0.6,0.4,0.9v0.4c0,0.3-0.1,0.6-0.4,0.9c-0.2,0.3-0.6,0.4-0.9,0.4h-1.6
		c-0.4,0-0.7-0.1-0.9-0.4c-0.2-0.3-0.4-0.6-0.4-0.9v-0.4c0-0.3,0.1-0.6,0.4-0.9C304,197.9,304.3,197.8,304.7,197.8z M309.7,182.8
		h0.5c0.8,0,1.2,0.4,1.2,1.2l-0.2,36.2c0,2.2,0.7,3.9,1.9,5.1c1.2,1.2,2.8,1.8,4.7,1.8h1.6c0.3,0,0.6,0.1,0.9,0.4s0.4,0.5,0.4,0.8
		v0.5c0,0.9-1,1.3-2.9,1.3c-2.9,0-5.2-0.9-6.9-2.6c-1.7-1.8-2.6-4.2-2.7-7.3l0.2-36.3C308.5,183.3,308.9,182.8,309.7,182.8z
		 M313.4,197.8h4.8c0.3,0,0.6,0.1,0.9,0.4c0.2,0.3,0.4,0.6,0.4,0.9v0.4c0,0.3-0.1,0.6-0.4,0.9c-0.2,0.3-0.5,0.4-0.9,0.4h-4.8
		c-0.3,0-0.6-0.1-0.9-0.4c-0.3-0.3-0.4-0.6-0.4-0.9v-0.4c0-0.3,0.1-0.6,0.4-0.9C312.8,197.9,313.1,197.8,313.4,197.8z"/>
	<path d="M331.9,200.5c2.1-1.9,4.8-2.8,8.1-2.8s6,0.9,8.1,2.8c2,1.9,3.1,4.5,3.1,7.9v11.3c0,3.4-1,6-3.1,7.9c-2,1.9-4.7,2.8-8,2.8
		c-3.3,0-6-0.9-8.1-2.8c-2.1-1.9-3.2-4.5-3.2-7.9v-11.3C328.7,205,329.8,202.3,331.9,200.5z M345.8,202.7c-1.5-1.3-3.4-2-5.8-2
		c-2.3,0-4.3,0.7-5.8,2c-1.6,1.3-2.3,3.2-2.3,5.7v11.3c0,2.5,0.8,4.4,2.3,5.7c1.6,1.3,3.5,2,5.8,2c2.3,0,4.3-0.7,5.8-2
		c1.5-1.3,2.3-3.2,2.3-5.7v-11.3C348,205.9,347.3,204,345.8,202.7z"/>
	<path d="M372.5,197.7c0.8,0,1.2,0.4,1.2,1.3v0.5c0,0.3-0.1,0.6-0.4,0.9c-0.2,0.3-0.5,0.4-0.9,0.4c-2.5,0-4.4,0.6-5.9,1.9
		c-1.5,1.3-2.2,3.2-2.2,5.8V229c0,0.4-0.1,0.7-0.4,0.9c-0.3,0.2-0.6,0.4-0.9,0.4h-0.5c-0.3,0-0.6-0.1-0.9-0.4
		c-0.3-0.2-0.4-0.6-0.4-0.9v-20.6c0-3.6,1-6.2,3-8C366.3,198.6,369.1,197.7,372.5,197.7z"/>
	<path d="M434.9,197.8h0.6c0.5,0,0.8,0.1,1,0.4c0.2,0.3,0.3,0.5,0.3,0.7s0,0.4-0.1,0.6l-10.7,29c-0.5,1.2-1.4,1.8-2.5,1.8
		s-1.9-0.6-2.3-1.8l-10.7-29.1c0-0.2-0.1-0.4-0.1-0.6s0.1-0.4,0.3-0.7c0.2-0.3,0.5-0.4,1-0.4h0.6c0.5,0,0.9,0.3,1.2,0.8l10.1,27.7
		l10.1-27.7C433.9,198.1,434.4,197.8,434.9,197.8z"/>
	<path d="M456,184.8h0.8c3.6,0,6.5,1,9,3c2.4,2,3.6,5.1,3.6,9.4v20.1c0,4.3-1.2,7.6-3.5,9.8c-2.3,2.2-5.4,3.3-9.3,3.4h-0.4
		c-3.9-0.1-7-1.2-9.4-3.4c-2.3-2.2-3.5-5.4-3.5-9.8v-20.1c0-2.9,0.6-5.2,1.9-7.1C447.4,186.5,451,184.8,456,184.8z M456.9,187.9h-1
		c-2.6,0-4.7,0.7-6.6,2.1c-1.8,1.4-2.7,3.8-2.7,7.3v19.8c0,6.8,3.1,10.1,9.4,10.1h0.8c6.3,0,9.4-3.4,9.4-10.1v-19.8
		c0-3.5-0.9-5.9-2.7-7.3C461.6,188.6,459.4,187.9,456.9,187.9z"/>
	<path d="M477.3,223.6c0.4-0.4,1.4-0.6,3-0.6s2.6,0.2,3.1,0.6c0.5,0.4,0.7,1.3,0.7,2.6v0.8c0,1.5-0.2,2.4-0.7,2.8
		c-0.5,0.4-1.5,0.6-3.1,0.6s-2.6-0.2-3-0.6c-0.4-0.4-0.6-1.3-0.6-2.8v-0.8C476.6,224.9,476.8,224,477.3,223.6z M481.5,225.6
		c-0.2-0.2-0.6-0.2-1.2-0.2s-1,0.1-1.1,0.2c-0.2,0.1-0.3,0.4-0.3,0.9v0.6c0,0.5,0.1,0.8,0.3,0.9c0.2,0.1,0.6,0.2,1.2,0.2
		c0.6,0,1-0.1,1.2-0.2c0.2-0.1,0.3-0.4,0.3-0.9v-0.6C481.8,226,481.7,225.7,481.5,225.6z"/>
	<path d="M504.8,187.6v41.3c0,0.7,0,1.1-0.1,1.2c0,0.1-0.3,0.2-0.7,0.2h-1.9c-0.3,0-0.5-0.1-0.6-0.2c-0.1-0.2-0.1-0.4-0.1-0.6v-40.8
		l-11.2,8.8c-0.6,0.4-1,0.4-1.4-0.1l-0.6-0.7c-0.2-0.2-0.3-0.5-0.3-0.7s0.2-0.5,0.6-0.8l11.2-9.1c1-0.8,2-1.2,3-1.2h0.1
		C504.2,184.8,504.8,185.8,504.8,187.6z"/>
</g>
</svg>
